<svg xmlns="http://www.w3.org/2000/svg" width="250" height="250" viewBox="0 0 250 250"><circle cx="40.9" cy="46.2" r="34.6" fill="#673200"/><circle cx="43.4" cy="55" r="14.8" fill="#ffaaca"/><circle cx="209.1" cy="46.2" r="34.6" fill="#673200"/><circle cx="206.6" cy="55" r="14.8" fill="#ffaaca"/><circle cx="125" cy="130.2" r="108.1" fill="#673200"/><circle cx="125" cy="169.7" r="42.3" fill="#c65b00"/><path fill="#c65b00" d="M171 32.4a65.6 65.6 0 0 0 41.9 116.1 63.6 63.6 0 0 0 19.1-2.9 110.5 110.5 0 0 0 1.1-15.4A108 108 0 0 0 171 32.4zM16.9 130.2a110.5 110.5 0 0 0 1.1 15.4 63.6 63.6 0 0 0 19.1 2.9A65.6 65.6 0 0 0 79 32.4a108 108 0 0 0-62.1 97.8z"/><path fill="none" stroke="#000" stroke-linecap="round" stroke-linejoin="round" stroke-width="3" d="M98.2 184.1a37.2 37.2 0 0 0 52.7 0"/><circle cx="125" cy="135.1" r="13" fill="#ffaaca"/><circle cx="81.8" cy="103.5" r="9.3"/><circle cx="168.2" cy="103.5" r="9.3"/></svg>